<?xml version="1.0" encoding="UTF-8"?>
<svg width="32px" height="32px" viewBox="0 0 32 32" version="1.1" xmlns="http://www.w3.org/2000/svg" xmlns:xlink="http://www.w3.org/1999/xlink">
    <!-- Generator: Sketch 60.1 (88133) - https://sketch.com -->
    <title>ic_vendor_apple</title>
    <desc>Created with Sketch.</desc>
    <g id="ic_vendor_apple" stroke="none" stroke-width="1" fill="none" fill-rule="evenodd">
        <g id="苹果">
            <g transform="translate(1.600000, 1.600000)">
                <rect id="矩形" fill="#000000" fill-rule="nonzero" opacity="0" x="0" y="0" width="28.8" height="28.8"></rect>
                <path d="M21.247677,15.3463679 C21.2160192,10.6753976 23.8407419,10.5545222 23.9587393,10.4796946 C22.4823328,8.32120554 20.1857004,7.98160328 19.3683526,7.94994545 C17.4142005,7.75136444 15.5550219,9.07811573 14.5621169,9.07811573 C13.57209,9.07811573 12.0410017,7.94706747 10.4206959,7.97584731 C8.29098672,8.00750514 6.32532268,9.21050305 5.22593227,11.1186074 C3.01276148,14.9607179 4.65896914,20.650495 6.81745821,23.7644753 C7.87080085,25.2898075 9.12848048,27.0022088 10.7804441,26.9417712 C12.3690921,26.8784555 12.970591,25.9114524 14.8930853,25.9114524 C16.8155795,25.9114524 17.3537628,26.9417712 19.0373843,26.9072353 C20.7469076,26.8755775 21.8319081,25.3531232 22.8766168,23.8220349 C24.0882487,22.0520739 24.5861402,20.4260122 24.61492,20.3396726 C24.5775062,20.3224047 21.2793349,18.4603481 21.2447991,15.3463679 L21.247677,15.3463679 L21.247677,15.3463679 Z M14.3951938,8.11111261 C14.3951938,4.64601817 17.2041075,1.83422644 20.6720799,1.83422644 C20.6720799,5.30219886 17.8602882,8.11111261 14.3951938,8.11111261 Z" id="形状" fill="#515A6E"></path>
            </g>
        </g>
    </g>
</svg>