<?xml version="1.0" encoding="UTF-8"?>
<svg width="32px" height="32px" viewBox="0 0 32 32" version="1.1" xmlns="http://www.w3.org/2000/svg" xmlns:xlink="http://www.w3.org/1999/xlink">
    <!-- Generator: Sketch 60.1 (88133) - https://sketch.com -->
    <title>ic_vendor_huawei</title>
    <desc>Created with Sketch.</desc>
    <g id="ic_vendor_huawei" stroke="none" stroke-width="1" fill="none" fill-rule="evenodd">
        <g id="苹果">
            <g id="华为">
                <rect id="矩形" fill="#000000" fill-rule="nonzero" opacity="0" x="0" y="0" width="32" height="32"></rect>
                <path d="M13.9531637,5.73217759 C13.9531637,5.73217759 11.7230598,5.63067841 10.300952,7.46869622 C8.87817263,9.30665009 9.94666419,12.1140587 10.6212148,13.5622608 C11.2957335,15.0104309 14.8549843,20.693202 14.9857437,20.8182052 C15.1154797,20.9435283 15.2718217,20.8907177 15.2803599,20.7783283 C15.2889621,20.6667879 15.6869322,12.5212066 15.3666374,10.5127443 C15.0463745,8.50421812 14.0981534,5.95250819 13.9531637,5.73217759 L13.9531637,5.73217759 Z M6.24565344,9.51889019 C5.99075425,9.54616769 4.16137059,11.3705627 3.99649038,13.1542494 C3.83081072,14.9378082 4.59426109,16.1248114 6.72590384,17.5448726 C8.871681,19.0664329 13.9712955,21.8656231 14.06496,21.6244746 C14.1587524,21.3839657 12.0888598,17.7061072 10.3949362,15.0311529 C8.70114063,12.3562624 6.49943338,9.49170863 6.24565344,9.51889019 Z M6.93149244,25.9716392 C8.47479806,26.6616354 10.879056,25.1119981 11.5441411,24.6612957 C12.1626657,24.188752 13.3051871,23.320061 13.3051871,23.320061 L4.56030012,23.5541103 C4.56030012,23.5541103 5.38815484,25.2815151 6.93149244,25.9716392 Z M7.1511835,18.9049105 C5.58606866,18.1214736 2.36610778,16.3217019 2.24011322,16.3561425 C2.11415062,16.3905192 1.6290715,18.6293853 2.63606875,20.3168492 C3.643066,22.0043131 5.60413641,22.5203472 6.50410222,22.6582377 C7.51596019,22.802396 13.4653025,22.7379597 13.4254256,22.6183288 C13.3903453,22.5139196 8.71722572,19.6876118 7.1511835,18.9049105 Z M21.6599705,7.46872819 C20.2379906,5.63071037 18.0077907,5.73220956 18.0077907,5.73220956 C17.8629929,5.95247622 16.9145479,8.50418616 16.5943171,10.5127763 C16.2740222,12.5212706 16.6729837,20.6667879 16.6814899,20.7784242 C16.6900921,20.89071 16.8453788,20.9434643 16.9759783,20.8182692 C17.1057783,20.693202 20.6660204,15.0104309 21.3406031,13.5622608 C22.0141624,12.1140587 23.0827499,9.30671403 21.6599705,7.46872819 Z M29.7207773,16.3561106 C29.5948467,16.3216379 26.3748858,18.1215056 24.809803,18.9048785 C23.2446881,19.6875478 18.5706731,22.5138876 18.5364243,22.6182968 C18.4957159,22.7378957 24.4450583,22.802396 25.4569162,22.6582058 C26.3568181,22.5203153 28.3178885,22.0042811 29.3249497,20.3168172 C30.3328743,18.6293853 29.8467399,16.3904553 29.7207773,16.3561106 L29.7207773,16.3561106 Z M20.4170053,24.6612957 C21.0819624,25.1119661 23.4871797,26.6616354 25.0305813,25.9716392 C26.5738549,25.2814512 27.4018695,23.5541103 27.4018695,23.5541103 L18.6569506,23.320061 C18.6569506,23.320061 19.7993441,24.1888799 20.4170053,24.6612957 L20.4170053,24.6612957 Z M27.9654874,13.1542174 C27.7997118,11.3705627 25.9703921,9.54616769 25.7164203,9.51885822 C25.461681,9.49167666 23.2599098,12.3562305 21.5661142,15.0311529 C19.8721267,17.7061072 17.802394,21.3840616 17.8961544,21.6244746 C17.9899148,21.8655911 23.0902968,19.0664329 25.2352745,17.5448726 C27.3667893,16.1247794 28.131295,14.9378082 27.9654874,13.1542174 Z" id="形状" fill="#515A6E"></path>
            </g>
        </g>
    </g>
</svg>