<?xml version="1.0" encoding="UTF-8"?>
<svg width="32px" height="32px" viewBox="0 0 32 32" version="1.1" xmlns="http://www.w3.org/2000/svg" xmlns:xlink="http://www.w3.org/1999/xlink">
    <!-- Generator: Sketch 60.1 (88133) - https://sketch.com -->
    <title>ic_vendor_oneplus</title>
    <desc>Created with Sketch.</desc>
    <g id="ic_vendor_oneplus" stroke="none" stroke-width="1" fill="none" fill-rule="evenodd">
        <path d="M19.5333109,5.74689873 L19.5333109,8.14689873 L7.3648,8.1456 L7.3648,25.7088 L24.816,25.7088 L24.8175351,13.5104175 L27.2175351,13.5104175 L27.2175351,28.1088963 L4.96627978,28.1088963 L4.96627978,5.74689873 L19.5333109,5.74689873 Z M17.2919074,11.2221126 L17.2912,20.0256 L19.4544241,20.0268592 L19.4544241,22.4268592 L12.706667,22.4268592 L12.706667,20.0268592 L14.8912,20.0256 L14.8912,13.6224 L12.7071624,13.6240055 L12.7061716,11.2240057 L17.2919074,11.2221126 Z M27.2175351,2.36514559 L27.216,5.7456 L30.648389,5.74689873 L30.648389,8.14689873 L27.2172798,8.14614559 L27.2175351,11.4080868 L24.8175351,11.4080868 L24.816,8.1456 L21.5330948,8.14689873 L21.5330948,5.74689873 L24.8172798,5.74614559 L24.8175351,2.36514559 L27.2175351,2.36514559 Z" id="形状结合" fill="#515A6E"></path>
    </g>
</svg>